<mxfile host="app.diagrams.net" modified="2023-12-27T09:23:34.946Z" agent="Mozilla/5.0 (Macintosh; Intel Mac OS X 10_15_7) AppleWebKit/537.36 (KHTML, like Gecko) Chrome/120.0.0.0 Safari/537.36" etag="UdG4_o2rufp9gTXdvOkR" version="22.1.11" type="github">
  <diagram name="Page-1" id="74e2e168-ea6b-b213-b513-2b3c1d86103e">
    <mxGraphModel dx="1194" dy="731" grid="1" gridSize="10" guides="1" tooltips="1" connect="1" arrows="1" fold="1" page="1" pageScale="1" pageWidth="1100" pageHeight="850" background="none" math="0" shadow="0">
      <root>
        <mxCell id="0" />
        <mxCell id="1" parent="0" />
        <mxCell id="Eb5sFlMc58AfCusn1sIJ-5" style="edgeStyle=orthogonalEdgeStyle;rounded=0;orthogonalLoop=1;jettySize=auto;html=1;exitX=1;exitY=0.5;exitDx=0;exitDy=0;entryX=0;entryY=0.5;entryDx=0;entryDy=0;" edge="1" parent="1" source="Eb5sFlMc58AfCusn1sIJ-1" target="Eb5sFlMc58AfCusn1sIJ-3">
          <mxGeometry relative="1" as="geometry" />
        </mxCell>
        <mxCell id="Eb5sFlMc58AfCusn1sIJ-1" value="客户端埋点" style="rounded=0;whiteSpace=wrap;html=1;" vertex="1" parent="1">
          <mxGeometry x="90" y="100" width="70" height="40" as="geometry" />
        </mxCell>
        <mxCell id="Eb5sFlMc58AfCusn1sIJ-7" style="edgeStyle=orthogonalEdgeStyle;rounded=0;orthogonalLoop=1;jettySize=auto;html=1;exitX=1;exitY=0.5;exitDx=0;exitDy=0;entryX=0;entryY=0.5;entryDx=0;entryDy=0;" edge="1" parent="1" source="Eb5sFlMc58AfCusn1sIJ-2" target="Eb5sFlMc58AfCusn1sIJ-3">
          <mxGeometry relative="1" as="geometry" />
        </mxCell>
        <mxCell id="Eb5sFlMc58AfCusn1sIJ-2" value="服务端埋点" style="rounded=0;whiteSpace=wrap;html=1;" vertex="1" parent="1">
          <mxGeometry x="90" y="260" width="70" height="40" as="geometry" />
        </mxCell>
        <mxCell id="Eb5sFlMc58AfCusn1sIJ-10" style="edgeStyle=orthogonalEdgeStyle;rounded=0;orthogonalLoop=1;jettySize=auto;html=1;exitX=1;exitY=0.5;exitDx=0;exitDy=0;entryX=0;entryY=0.5;entryDx=0;entryDy=0;" edge="1" parent="1" source="Eb5sFlMc58AfCusn1sIJ-3" target="Eb5sFlMc58AfCusn1sIJ-8">
          <mxGeometry relative="1" as="geometry" />
        </mxCell>
        <mxCell id="Eb5sFlMc58AfCusn1sIJ-11" value="mq" style="edgeLabel;html=1;align=center;verticalAlign=middle;resizable=0;points=[];" vertex="1" connectable="0" parent="Eb5sFlMc58AfCusn1sIJ-10">
          <mxGeometry x="-0.0615" y="2" relative="1" as="geometry">
            <mxPoint y="1" as="offset" />
          </mxGeometry>
        </mxCell>
        <mxCell id="Eb5sFlMc58AfCusn1sIJ-3" value="全埋点" style="rounded=0;whiteSpace=wrap;html=1;" vertex="1" parent="1">
          <mxGeometry x="310" y="80" width="120" height="240" as="geometry" />
        </mxCell>
        <mxCell id="Eb5sFlMc58AfCusn1sIJ-12" style="edgeStyle=orthogonalEdgeStyle;rounded=0;orthogonalLoop=1;jettySize=auto;html=1;exitX=1;exitY=0.5;exitDx=0;exitDy=0;" edge="1" parent="1" source="Eb5sFlMc58AfCusn1sIJ-8" target="Eb5sFlMc58AfCusn1sIJ-9">
          <mxGeometry relative="1" as="geometry" />
        </mxCell>
        <mxCell id="Eb5sFlMc58AfCusn1sIJ-8" value="site_nhjewelry_sync" style="rounded=0;whiteSpace=wrap;html=1;" vertex="1" parent="1">
          <mxGeometry x="560" y="80" width="120" height="240" as="geometry" />
        </mxCell>
        <mxCell id="Eb5sFlMc58AfCusn1sIJ-9" value="facebook" style="rounded=0;whiteSpace=wrap;html=1;" vertex="1" parent="1">
          <mxGeometry x="790" y="170" width="120" height="60" as="geometry" />
        </mxCell>
      </root>
    </mxGraphModel>
  </diagram>
</mxfile>
